<?xml version="1.0" encoding="UTF-8"?>
<svg id="Layer_2" data-name="Layer 2" xmlns="http://www.w3.org/2000/svg" viewBox="0 0 676.86 692.72">
  <defs>
    <style>
      .cls-1, .cls-2 {
        fill: #0c4a6e;
      }

      .cls-2 {
        fill-rule: evenodd;
      }
    </style>
  </defs>
  <g id="Layer_1-2" data-name="Layer 1">
    <g>
      <path class="cls-2" d="M344.1,358.28c0-12.89-10.45-23.33-23.33-23.33H133.55c-12.89,0-23.33,10.45-23.33,23.33s10.45,23.33,23.33,23.33h187.22c12.89,0,23.33-10.45,23.33-23.33Z"/>
      <path class="cls-2" d="M412.5,381.62h117.65c12.89,0,23.33-10.45,23.33-23.33s-10.45-23.33-23.33-23.33h-117.65c-12.89,0-23.33,10.45-23.33,23.33s10.45,23.33,23.33,23.33Z"/>
      <path class="cls-2" d="M295.45,435.44c-12.89,0-23.33,10.45-23.33,23.33s10.45,23.33,23.33,23.33h175.87c12.89,0,23.33-10.45,23.33-23.33s-10.45-23.33-23.33-23.33h-175.87Z"/>
      <path class="cls-2" d="M539.02,535.93H168.95c-12.89,0-23.33,10.45-23.33,23.33s10.45,23.33,23.33,23.33h370.07c12.89,0,23.33-10.45,23.33-23.33s-10.45-23.33-23.33-23.33Z"/>
      <path class="cls-2" d="M536.27,53.04h-27.16c0-.46,0-.93,0-1.39,.12-8.55,.47-17.09,1.44-25.64,.18-1.68,.2-3.54,0-5.29-4.75-30.84-48.96-25.77-46.67,5.29,.97,9,1.38,18.01,1.45,27.03H211.55c0-.46,0-.93,0-1.39,.12-8.55,.47-17.09,1.44-25.64,.18-1.68,.2-3.54,0-5.29-4.75-30.84-48.96-25.77-46.67,5.29,.97,9,1.38,18.01,1.45,27.03h-27.18C62.94,53.04,0,115.99,0,193.63v358.5c0,77.64,62.94,140.59,140.59,140.59h395.69c77.64,0,140.59-62.94,140.59-140.59V193.63c0-77.64-62.94-140.59-140.59-140.59ZM140.59,99.71h25.39c-.87,10.14-2.85,20.03-9,28.85-25.82,37.08,18.51,82.21,56.18,56.18,18.04-12.99,22.13-38.14,9.15-56.18-6.15-8.83-8.13-18.71-9-28.85h250.24c-.87,10.14-2.85,20.03-9,28.85-25.82,37.08,18.51,82.21,56.18,56.18,18.04-12.99,22.13-38.14,9.15-56.18-6.15-8.83-8.13-18.71-9-28.85h25.39c51.78,0,93.92,42.13,93.92,93.92v32.6H46.67v-32.6c0-51.78,42.13-93.92,93.92-93.92Zm395.69,546.34H140.59c-51.79,0-93.92-42.13-93.92-93.92V272.89H630.19v279.24c0,51.79-42.13,93.92-93.92,93.92Z"/>
      <circle class="cls-1" cx="338.43" cy="166.27" r="26.76"/>
    </g>
  </g>
</svg>