<?xml version="1.0" encoding="UTF-8"?>
<svg id="Layer_2" data-name="Layer 2" xmlns="http://www.w3.org/2000/svg" viewBox="0 0 1273.26 1273.26">
  <defs>
    <style>
      .cls-1 {
        fill: #e0f2fe;
      }

      .cls-2, .cls-3 {
        fill: #0c4a6e;
      }

      .cls-3 {
        fill-rule: evenodd;
      }
    </style>
  </defs>
  <g id="Layer_1-2" data-name="Layer 1">
    <rect class="cls-1" x="0" y="0" width="1273.26" height="1273.26" rx="636.63" ry="636.63"/>
    <g>
      <path class="cls-3" d="M642.3,648.55c0-12.89-10.45-23.33-23.33-23.33h-187.22c-12.89,0-23.33,10.45-23.33,23.33s10.45,23.33,23.33,23.33h187.22c12.89,0,23.33-10.45,23.33-23.33Z"/>
      <path class="cls-3" d="M710.7,671.89h117.65c12.89,0,23.33-10.45,23.33-23.33s-10.45-23.33-23.33-23.33h-117.65c-12.89,0-23.33,10.45-23.33,23.33s10.45,23.33,23.33,23.33Z"/>
      <path class="cls-3" d="M593.65,725.71c-12.89,0-23.33,10.45-23.33,23.33s10.45,23.33,23.33,23.33h175.87c12.89,0,23.33-10.45,23.33-23.33s-10.45-23.33-23.33-23.33h-175.87Z"/>
      <path class="cls-3" d="M837.22,826.2H467.15c-12.89,0-23.33,10.45-23.33,23.33s10.45,23.33,23.33,23.33h370.07c12.89,0,23.33-10.45,23.33-23.33s-10.45-23.33-23.33-23.33Z"/>
      <path class="cls-3" d="M834.47,343.31h-27.16c0-.46,0-.93,0-1.39,.12-8.55,.47-17.09,1.44-25.64,.18-1.68,.2-3.54,0-5.29-4.75-30.84-48.96-25.77-46.67,5.29,.97,9,1.38,18.01,1.45,27.03h-253.78c0-.46,0-.93,0-1.39,.12-8.55,.47-17.09,1.44-25.64,.18-1.68,.2-3.54,0-5.29-4.75-30.84-48.96-25.77-46.67,5.29,.97,9,1.38,18.01,1.45,27.03h-27.18c-77.64,0-140.59,62.94-140.59,140.59v358.5c0,77.64,62.94,140.59,140.59,140.59h395.69c77.64,0,140.59-62.94,140.59-140.59V483.9c0-77.64-62.94-140.59-140.59-140.59Zm-395.69,46.67h25.39c-.87,10.14-2.85,20.03-9,28.85-25.82,37.08,18.51,82.21,56.18,56.18,18.04-12.99,22.13-38.14,9.15-56.18-6.15-8.83-8.13-18.71-9-28.85h250.24c-.87,10.14-2.85,20.03-9,28.85-25.82,37.08,18.51,82.21,56.18,56.18,18.04-12.99,22.13-38.14,9.15-56.18-6.15-8.83-8.13-18.71-9-28.85h25.39c51.78,0,93.92,42.13,93.92,93.92v32.6H344.87v-32.6c0-51.78,42.13-93.92,93.92-93.92Zm395.69,546.34H438.78c-51.79,0-93.92-42.13-93.92-93.92v-279.24H928.39v279.24c0,51.79-42.13,93.92-93.92,93.92Z"/>
      <circle class="cls-2" cx="636.63" cy="456.54" r="26.76"/>
    </g>
  </g>
</svg>