<?xml version="1.0" encoding="UTF-8"?>
<svg id="Layer_2" data-name="Layer 2" xmlns="http://www.w3.org/2000/svg" viewBox="0 0 1236.63 207.93">
  <defs>
    <style>
      .cls-1 {
        fill: #e0f2fe;
      }
    </style>
  </defs>
  <g id="Layer_1-2" data-name="Layer 1">
    <g>
      <path class="cls-1" d="M0,6.77c0-1.81,1.47-3.28,3.28-3.28H53.79c53.55,0,81.5,30.5,81.5,76.14s-27.94,76.14-81.5,76.14H3.28c-1.81,0-3.28-1.47-3.28-3.28V6.77ZM53.79,120.85c30.5,0,43.31-15.83,43.31-41.21s-12.81-41.21-43.31-41.21h-12.78c-1.81,0-3.28,1.47-3.28,3.28V117.57c0,1.81,1.47,3.28,3.28,3.28h12.78Z"/>
      <path class="cls-1" d="M147.39,100.36V44.03c0-1.81,1.47-3.28,3.28-3.28h28.36c1.81,0,3.28,1.47,3.28,3.28v56.33c0,18.16,8.85,25.85,21.89,25.85s21.89-7.68,21.89-25.85V44.03c0-1.81,1.47-3.28,3.28-3.28h28.36c1.81,0,3.28,1.47,3.28,3.28v56.33c0,38.65-22.82,58.44-56.81,58.44s-56.81-19.56-56.81-58.44Z"/>
      <path class="cls-1" d="M277.27,110.37V3.28c0-1.81,1.47-3.28,3.28-3.28h28.36c1.81,0,3.28,1.47,3.28,3.28V37.47c0,1.81,1.47,3.28,3.28,3.28h47.92c1.81,0,3.28,1.47,3.28,3.28v24.87c0,1.81-1.47,3.28-3.28,3.28h-47.92c-1.81,0-3.28,1.47-3.28,3.28v34.91c0,12.11,5.59,15.83,13.27,15.83s13.27-3.73,13.27-15.83v-.21c0-1.81,1.47-3.28,3.28-3.28h28.36c1.81,0,3.28,1.47,3.28,3.28v.21c0,32.83-19.56,48.43-48.2,48.43s-48.2-15.6-48.2-48.43Z"/>
      <path class="cls-1" d="M388.97,166.95h28.74c1.17,0,2.27,.62,2.84,1.64,3.6,6.48,9.55,9.07,19.9,9.07,15.37,0,22.12-7.22,22.12-24.68v-2.44c0-2.88-3.42-4.3-5.52-2.34-6.13,5.73-14.04,8.74-23.12,8.74-24.22,0-50.06-16.3-50.06-58.44V44.03c0-1.81,1.47-3.28,3.28-3.28h28.36c1.81,0,3.28,1.47,3.28,3.28v54.46c0,18.16,8.85,25.85,21.89,25.85s21.89-8.15,21.89-25.85V44.03c0-1.81,1.47-3.28,3.28-3.28h28.36c1.81,0,3.28,1.47,3.28,3.28v107.79c0,40.05-25.61,56.12-57.05,56.12-25.88,0-47.56-11.35-54.65-36.84-.58-2.08,1.01-4.14,3.17-4.14Z"/>
      <path class="cls-1" d="M515.1,6.77c0-1.81,1.47-3.28,3.28-3.28h58.42c40.28,0,58.21,21.89,58.21,52.16,0,20.16-8.04,36.81-25.28,45.49-1.75,.88-2.37,3.07-1.31,4.72l28.92,44.85c1.41,2.18-.16,5.06-2.76,5.06h-36.77c-1.18,0-2.27-.64-2.86-1.67l-25.13-44.4c-.58-1.03-1.67-1.67-2.86-1.67h-10.87c-1.81,0-3.28,1.47-3.28,3.28v41.17c0,1.81-1.47,3.28-3.28,3.28h-31.16c-1.81,0-3.28-1.47-3.28-3.28V6.77Zm62.17,66.34c15.13,0,19.56-7.45,19.56-17.46s-4.42-17.23-19.56-17.23h-21.17c-1.81,0-3.28,1.47-3.28,3.28v28.13c0,1.81,1.47,3.28,3.28,3.28h21.17Z"/>
      <path class="cls-1" d="M643.82,98.26c0-34.93,25.61-60.54,61.94-60.54s61.94,25.61,61.94,60.54-25.61,60.54-61.94,60.54-61.94-25.61-61.94-60.54Zm88.48,0c0-16.53-10.71-27.94-26.54-27.94s-26.54,11.41-26.54,27.94,10.71,27.94,26.54,27.94,26.54-11.41,26.54-27.94Z"/>
      <path class="cls-1" d="M782.41,120.85h28.23c1.46,0,2.68,1.01,3.07,2.41,1.24,4.45,5.66,6.67,13.84,6.67,10.71,0,14.2-3.73,14.2-8.61,0-7.68-8.38-8.38-19.09-10.01-15.83-2.33-41.91-6.29-41.91-34,0-23.28,18.39-39.58,47.03-39.58,26.92,0,44.18,14.61,46.73,33.58,.26,1.95-1.29,3.68-3.26,3.68h-27.97c-1.31,0-2.53-.77-3.02-2-1.64-4.11-5.95-6.39-12.01-6.39-8.61,0-12.11,4.42-12.11,9.08,0,6.99,8.38,7.92,19.09,9.55,16.53,2.33,41.91,6.75,41.91,34,0,23.75-19.56,39.58-49.13,39.58-27.92,0-46.5-14.11-48.88-34.31-.23-1.94,1.31-3.65,3.27-3.65Z"/>
      <path class="cls-1" d="M888.75,110.37V3.28c0-1.81,1.47-3.28,3.28-3.28h28.36c1.81,0,3.28,1.47,3.28,3.28V37.47c0,1.81,1.47,3.28,3.28,3.28h47.92c1.81,0,3.28,1.47,3.28,3.28v24.87c0,1.81-1.47,3.28-3.28,3.28h-47.92c-1.81,0-3.28,1.47-3.28,3.28v34.91c0,12.11,5.59,15.83,13.27,15.83s13.27-3.73,13.27-15.83v-.21c0-1.81,1.47-3.28,3.28-3.28h28.36c1.81,0,3.28,1.47,3.28,3.28v.21c0,32.83-19.56,48.43-48.2,48.43s-48.2-15.6-48.2-48.43Z"/>
      <path class="cls-1" d="M997.25,98.26c0-34.93,25.61-60.54,61.94-60.54s61.24,25.61,61.24,60.54v6.5c0,1.81-1.47,3.28-3.28,3.28h-79.22c-2.31,0-3.88,2.32-3.06,4.48,3.95,10.37,13.23,15.08,24.32,15.08,9.34,0,16.45-1.82,20.95-7.17,.64-.76,1.56-1.21,2.55-1.21h29.81c2.35,0,3.92,2.39,3.03,4.56-8.7,21.2-29.57,35.03-56.33,35.03-36.32,0-61.94-25.61-61.94-60.54Zm82.32-12.34c2.49,0,4.09-2.67,2.89-4.85-4.68-8.44-12.96-12.15-23.27-12.15s-18.59,3.88-22.98,12.22c-1.14,2.17,.47,4.78,2.92,4.78h40.44Z"/>
      <path class="cls-1" d="M1133.34,90.34c0-35.86,20.96-52.62,51.69-52.62s50.1,16.24,51.6,50.2c.08,1.89-1.41,3.47-3.3,3.45l-28.39-.19c-1.73-.01-3.13-1.36-3.25-3.09-.89-13.04-7.57-17.77-16.66-17.77-9.78,0-16.77,4.66-16.77,20.02v62.15c0,1.81-1.47,3.28-3.28,3.28h-28.36c-1.81,0-3.28-1.47-3.28-3.28v-62.15Z"/>
    </g>
  </g>
</svg>