<?xml version="1.0" encoding="UTF-8"?>
<svg id="Layer_2" data-name="Layer 2" xmlns="http://www.w3.org/2000/svg" viewBox="0 0 1297.31 284.49">
  <defs>
    <style>
      .cls-1, .cls-2 {
        fill: #082f49;
      }

      .cls-2 {
        fill-rule: evenodd;
      }
    </style>
  </defs>
  <g id="Layer_1-2" data-name="Layer 1">
    <g>
      <g>
        <path class="cls-1" d="M337.94,99.85c0-1.41,1.14-2.55,2.55-2.55h39.18c41.55,0,63.22,23.66,63.22,59.07s-21.68,59.07-63.22,59.07h-39.18c-1.41,0-2.55-1.14-2.55-2.55V99.85Zm41.73,88.5c23.66,0,33.6-12.28,33.6-31.97s-9.94-31.97-33.6-31.97h-9.92c-1.41,0-2.55,1.14-2.55,2.55v58.85c0,1.41,1.14,2.55,2.55,2.55h9.92Z"/>
        <path class="cls-1" d="M452.28,172.45v-43.7c0-1.41,1.14-2.55,2.55-2.55h22c1.41,0,2.55,1.14,2.55,2.55v43.7c0,14.09,6.86,20.05,16.98,20.05s16.98-5.96,16.98-20.05v-43.7c0-1.41,1.14-2.55,2.55-2.55h22c1.41,0,2.55,1.14,2.55,2.55v43.7c0,29.99-17.7,45.34-44.08,45.34s-44.08-15.17-44.08-45.34Z"/>
        <path class="cls-1" d="M553.05,180.21V97.14c0-1.41,1.14-2.55,2.55-2.55h22c1.41,0,2.55,1.14,2.55,2.55v26.52c0,1.41,1.14,2.55,2.55,2.55h37.18c1.41,0,2.55,1.14,2.55,2.55v19.3c0,1.41-1.14,2.55-2.55,2.55h-37.18c-1.41,0-2.55,1.14-2.55,2.55v27.08c0,9.39,4.34,12.28,10.3,12.28s10.3-2.89,10.3-12.28v-.16c0-1.41,1.14-2.55,2.55-2.55h22c1.41,0,2.55,1.14,2.55,2.55v.16c0,25.47-15.17,37.57-37.39,37.57s-37.39-12.1-37.39-37.57Z"/>
        <path class="cls-1" d="M639.7,224.11h22.3c.91,0,1.76,.48,2.2,1.27,2.79,5.03,7.41,7.04,15.44,7.04,11.92,0,17.16-5.6,17.16-19.15v-1.9c0-2.23-2.65-3.34-4.28-1.81-4.76,4.45-10.89,6.78-17.93,6.78-18.79,0-38.84-12.64-38.84-45.34v-42.25c0-1.41,1.14-2.55,2.55-2.55h22c1.41,0,2.55,1.14,2.55,2.55v42.25c0,14.09,6.86,20.05,16.98,20.05s16.98-6.32,16.98-20.05v-42.25c0-1.41,1.14-2.55,2.55-2.55h22c1.41,0,2.55,1.14,2.55,2.55v83.62c0,31.07-19.87,43.53-44.26,43.53-20.08,0-36.9-8.8-42.4-28.58-.45-1.61,.78-3.21,2.46-3.21Z"/>
        <path class="cls-1" d="M737.55,99.85c0-1.41,1.14-2.55,2.55-2.55h45.32c31.25,0,45.16,16.98,45.16,40.46,0,15.64-6.24,28.55-19.61,35.29-1.36,.68-1.84,2.38-1.02,3.66l22.43,34.79c1.09,1.69-.12,3.93-2.14,3.93h-28.53c-.92,0-1.76-.49-2.22-1.29l-19.49-34.45c-.45-.8-1.3-1.29-2.22-1.29h-8.43c-1.41,0-2.55,1.14-2.55,2.55v31.94c0,1.41-1.14,2.55-2.55,2.55h-24.17c-1.41,0-2.55-1.14-2.55-2.55V99.85Zm48.23,51.47c11.74,0,15.17-5.78,15.17-13.55s-3.43-13.37-15.17-13.37h-16.42c-1.41,0-2.55,1.14-2.55,2.55v21.82c0,1.41,1.14,2.55,2.55,2.55h16.42Z"/>
        <path class="cls-1" d="M837.41,170.82c0-27.1,19.87-46.97,48.05-46.97s48.05,19.87,48.05,46.97-19.87,46.97-48.05,46.97-48.05-19.87-48.05-46.97Zm68.64,0c0-12.83-8.31-21.68-20.59-21.68s-20.59,8.85-20.59,21.68,8.31,21.68,20.59,21.68,20.59-8.85,20.59-21.68Z"/>
        <path class="cls-1" d="M944.92,188.34h21.9c1.13,0,2.08,.78,2.38,1.87,.96,3.45,4.39,5.18,10.74,5.18,8.31,0,11.02-2.89,11.02-6.68,0-5.96-6.5-6.5-14.81-7.77-12.28-1.81-32.51-4.88-32.51-26.37,0-18.06,14.27-30.71,36.49-30.71,20.89,0,34.27,11.34,36.25,26.05,.2,1.51-1,2.85-2.53,2.85h-21.7c-1.02,0-1.96-.6-2.34-1.55-1.27-3.18-4.62-4.95-9.32-4.95-6.68,0-9.39,3.43-9.39,7.04,0,5.42,6.5,6.14,14.81,7.41,12.83,1.81,32.51,5.24,32.51,26.37,0,18.43-15.17,30.71-38.11,30.71-21.66,0-36.07-10.95-37.92-26.62-.18-1.51,1.02-2.83,2.53-2.83Z"/>
        <path class="cls-1" d="M1027.42,180.21V97.14c0-1.41,1.14-2.55,2.55-2.55h22c1.41,0,2.55,1.14,2.55,2.55v26.52c0,1.41,1.14,2.55,2.55,2.55h37.18c1.41,0,2.55,1.14,2.55,2.55v19.3c0,1.41-1.14,2.55-2.55,2.55h-37.18c-1.41,0-2.55,1.14-2.55,2.55v27.08c0,9.39,4.34,12.28,10.3,12.28s10.3-2.89,10.3-12.28v-.16c0-1.41,1.14-2.55,2.55-2.55h22c1.41,0,2.55,1.14,2.55,2.55v.16c0,25.47-15.17,37.57-37.39,37.57s-37.39-12.1-37.39-37.57Z"/>
        <path class="cls-1" d="M1111.6,170.82c0-27.1,19.87-46.97,48.05-46.97s47.51,19.87,47.51,46.97v5.04c0,1.41-1.14,2.55-2.55,2.55h-61.45c-1.79,0-3.01,1.8-2.37,3.48,3.07,8.04,10.26,11.7,18.86,11.7,7.24,0,12.76-1.41,16.25-5.56,.49-.59,1.21-.94,1.97-.94h23.13c1.82,0,3.04,1.85,2.35,3.54-6.75,16.44-22.94,27.17-43.7,27.17-28.18,0-48.05-19.87-48.05-46.97Zm63.86-9.57c1.93,0,3.18-2.07,2.24-3.76-3.63-6.55-10.06-9.43-18.05-9.43s-14.42,3.01-17.83,9.48c-.89,1.68,.36,3.71,2.27,3.71h31.37Z"/>
        <path class="cls-1" d="M1217.17,164.68c0-27.82,16.26-40.82,40.1-40.82s38.87,12.6,40.03,38.94c.06,1.46-1.1,2.69-2.56,2.68l-22.02-.15c-1.34,0-2.43-1.06-2.52-2.39-.69-10.11-5.87-13.79-12.93-13.79-7.59,0-13.01,3.61-13.01,15.53v48.21c0,1.41-1.14,2.55-2.55,2.55h-22c-1.41,0-2.55-1.14-2.55-2.55v-48.21Z"/>
      </g>
      <g>
        <path class="cls-2" d="M141.32,147.14c0-5.29-4.29-9.58-9.58-9.58H54.85c-5.29,0-9.58,4.29-9.58,9.58s4.29,9.58,9.58,9.58h76.89c5.29,0,9.58-4.29,9.58-9.58Z"/>
        <path class="cls-2" d="M169.41,156.73h48.32c5.29,0,9.58-4.29,9.58-9.58s-4.29-9.58-9.58-9.58h-48.32c-5.29,0-9.58,4.29-9.58,9.58s4.29,9.58,9.58,9.58Z"/>
        <path class="cls-2" d="M121.34,178.83c-5.29,0-9.58,4.29-9.58,9.58s4.29,9.58,9.58,9.58h72.23c5.29,0,9.58-4.29,9.58-9.58s-4.29-9.58-9.58-9.58H121.34Z"/>
        <path class="cls-2" d="M221.37,220.1H69.39c-5.29,0-9.58,4.29-9.58,9.58s4.29,9.58,9.58,9.58H221.37c5.29,0,9.58-4.29,9.58-9.58s-4.29-9.58-9.58-9.58Z"/>
        <path class="cls-2" d="M220.24,21.78h-11.15c0-.19,0-.38,0-.57,.05-3.51,.19-7.02,.59-10.53,.07-.69,.08-1.45,0-2.17-1.95-12.66-20.11-10.58-19.17,2.17,.4,3.7,.57,7.4,.6,11.1H86.88c0-.19,0-.38,0-.57,.05-3.51,.19-7.02,.59-10.53,.07-.69,.08-1.45,0-2.17-1.95-12.66-20.11-10.58-19.17,2.17,.4,3.7,.57,7.4,.6,11.1h-11.16C25.85,21.78,0,47.63,0,79.52V226.75c0,31.89,25.85,57.74,57.74,57.74H220.24c31.89,0,57.74-25.85,57.74-57.74V79.52c0-31.89-25.85-57.74-57.74-57.74ZM57.74,40.95h10.43c-.36,4.17-1.17,8.22-3.7,11.85-10.6,15.23,7.6,33.76,23.07,23.07,7.41-5.33,9.09-15.66,3.76-23.07-2.52-3.62-3.34-7.68-3.69-11.85h102.77c-.36,4.17-1.17,8.22-3.7,11.85-10.6,15.23,7.6,33.76,23.07,23.07,7.41-5.33,9.09-15.66,3.76-23.07-2.52-3.62-3.34-7.68-3.7-11.85h10.43c21.27,0,38.57,17.3,38.57,38.57v13.39H19.17v-13.39c0-21.27,17.3-38.57,38.57-38.57Zm162.5,224.37H57.74c-21.27,0-38.57-17.3-38.57-38.57V112.07h239.64v114.68c0,21.27-17.3,38.57-38.57,38.57Z"/>
        <circle class="cls-1" cx="138.99" cy="68.28" r="10.99"/>
      </g>
    </g>
  </g>
</svg>